<?xml version="1.0" encoding="UTF-8"?> <svg xmlns="http://www.w3.org/2000/svg" id="Layer_1" data-name="Layer 1" viewBox="0 0 140 75"> <defs> <style>.cls-1{fill:#14133b;stroke:#14133b;}.cls-2{fill:#2f52a0;stroke:#3153a1;}</style> </defs> <title>Artboard 1</title> <path class="cls-1" d="M57.3,27.14a9.89,9.89,0,0,1,3.49,4.33A15.24,15.24,0,0,1,62,37.57a13,13,0,0,1-2.89,8.54,9.74,9.74,0,0,1-7.94,3.5,25.12,25.12,0,0,1-7.33-1.11V29.13q4.1-3.58,8-3.58A9.34,9.34,0,0,1,57.3,27.14ZM36.84,53.58A36.14,36.14,0,0,0,50.2,56.19,21.2,21.2,0,0,0,60,54a15.61,15.61,0,0,0,6.66-6.48A20.84,20.84,0,0,0,69,37.27a23.2,23.2,0,0,0-1.7-8.87,15.31,15.31,0,0,0-5.18-6.71,14.08,14.08,0,0,0-8.55-2.55,15.12,15.12,0,0,0-5.21.79,21.27,21.27,0,0,0-4.57,2.45V4.47l-7-3.16Z"></path> <path class="cls-1" d="M77.46,4.76a4.39,4.39,0,0,1,3,1.07,3.86,3.86,0,0,1,1.23,3.08A4,4,0,0,1,80.49,12a4.09,4.09,0,0,1-2.87,1.09,4.2,4.2,0,0,1-2.94-1.18,3.88,3.88,0,0,1-1.27-3A4.16,4.16,0,0,1,74.55,6,3.78,3.78,0,0,1,77.46,4.76Zm-3.34,15h7.06V61.27q0,9-7.14,12.42L68.88,68.6a7.89,7.89,0,0,0,3.91-3.1,8.74,8.74,0,0,0,1.33-4.79Z"></path> <path class="cls-1" d="M98.38,19.14a18.69,18.69,0,0,1,5.43.68A35.45,35.45,0,0,1,109,22v7q-6.34-3.82-10.08-3.83a7.09,7.09,0,0,0-3.21.74,2.54,2.54,0,0,0-1.48,2.45,3.41,3.41,0,0,0,1.28,2.53,17.71,17.71,0,0,0,3.32,2.31l4.21,2.35q7.7,4.48,7.7,10.58a8.76,8.76,0,0,1-3.56,7.41,14.13,14.13,0,0,1-8.75,2.68A20.84,20.84,0,0,1,95,55.93a20.53,20.53,0,0,1-2.76-.64q-1.21-.39-3.06-1.18L86.71,53v-7.6A37.42,37.42,0,0,0,93,48.73a14.78,14.78,0,0,0,5.1,1.38,7.14,7.14,0,0,0,3.59-1,3.06,3.06,0,0,0,1.79-2.7,3.46,3.46,0,0,0-.56-1.94,6.23,6.23,0,0,0-1.52-1.57,30.06,30.06,0,0,0-2.65-1.69L94.4,38.66a18.93,18.93,0,0,1-5.7-4.74,9.14,9.14,0,0,1-1.76-5.54,8,8,0,0,1,3.3-6.8A13.34,13.34,0,0,1,98.38,19.14Z"></path> <path class="cls-1" d="M126.36,19.14a18.7,18.7,0,0,1,5.43.68A35.45,35.45,0,0,1,137,22v7q-6.34-3.82-10.08-3.83a7.09,7.09,0,0,0-3.21.74,2.54,2.54,0,0,0-1.48,2.45,3.41,3.41,0,0,0,1.28,2.53,17.7,17.7,0,0,0,3.32,2.31l4.21,2.35q7.7,4.48,7.7,10.58a8.76,8.76,0,0,1-3.56,7.41,14.13,14.13,0,0,1-8.75,2.68,20.84,20.84,0,0,1-3.41-.26,20.53,20.53,0,0,1-2.76-.64q-1.21-.39-3.06-1.18L114.69,53v-7.6a37.42,37.42,0,0,0,6.26,3.3,14.78,14.78,0,0,0,5.1,1.38,7.14,7.14,0,0,0,3.59-1,3.06,3.06,0,0,0,1.79-2.7,3.46,3.46,0,0,0-.56-1.94,6.23,6.23,0,0,0-1.52-1.57,30.06,30.06,0,0,0-2.65-1.69l-4.32-2.52a18.93,18.93,0,0,1-5.7-4.74,9.14,9.14,0,0,1-1.76-5.54,8,8,0,0,1,3.29-6.8A13.34,13.34,0,0,1,126.36,19.14Z"></path> <path class="cls-2" d="M29.66,22.35a48.86,48.86,0,0,1-.86-9,83.68,83.68,0,0,1,.89-9.13l-6.42-2.9a50.29,50.29,0,0,0-1.51,12,50.24,50.24,0,0,0,1.48,11.91Z"></path> <path class="cls-2" d="M19.4,22.35a48.86,48.86,0,0,1-.86-9,83.67,83.67,0,0,1,.89-9.13L13,1.31a50.29,50.29,0,0,0-1.51,12A50.24,50.24,0,0,0,13,25.25Z"></path> <path class="cls-2" d="M9.16,22.35a48.86,48.86,0,0,1-.86-9,83.68,83.68,0,0,1,.89-9.13L2.76,1.31a50.29,50.29,0,0,0-1.51,12A50.24,50.24,0,0,0,2.73,25.25Z"></path> </svg> 